<svg xmlns="http://www.w3.org/2000/svg" aria-hidden="true" style="position:absolute;width:0;height:0;overflow:hidden"><defs><symbol id="icon-effective_team" viewBox="0 0 32 32"><path fill="#ec3c05" d="M29.666 9.876c-1.598.945-2.458 1.331-4.114 1.244-.623-.007-.953-.276-1.569-.218-.573.022-.867.24-1.441.436-.881.276-1.362.524-2.286.815-.587.167-.96.175-1.569.385-.523.225-.272.044-.638.472-.473.531-.358.945-.803 1.854-.552 1.193-.488 1.352-.172 1.498-.208.61-.258 1.018-.208 1.679.057.502-.15.85.38 1.25.724.546 2.243 1.825 2.631 1.846.58-.021 2.272.044 3.132-.559.194-.124.251-.247.086.218-.035.058-2.143 1.723-2.372 1.715-1.623.053-1.935.13-1.964.168-.187-.073-1.43-1.579-2.192-1.026-.294.182-.43.357-.545.684.1.211.574.546 1.01.822.631.408.688.836 1.319.989.767.174 1.584.058 2.071.123.187.051 1.878-.451 2.931-1.025.975-.509-1.34.982-1.906 1.716-1.706.546-1.225.567-2.035.735-.752.174-.717.131-1.233.298-.53.131-.968.865-.465 1.25.301.255 1.24-.102 2.164-.131.409-.007 2.078-.785 2.458-.988.946-.516 1.641-1.229 2.2-1.636.774-.545-.874 1.505-1.57 2.363-.201.277-.294.334-.544.691-.415.546.114 1.375.379 1.244.308-.116.509-.741.846-.945.172-.095.631-.778 1.061-1.244.315-.363.545-.523.846-.901.509-.64.616-1.127 1.061-1.811.272-.357.465-.465.716-.901 1.326-2.545.939-3.686 2.208-5.504.387-.538.824-.669 1.441-.989.573-4.239-1.326-6.609-1.312-6.616zm-6.149 6.747c-.301 1.069-.272 1.192-.846 1.592-.695.538-.731.131-2.329 1.032 0 0-.66-.698-1.699-1.032.007.015-.28-1.352-.846-1.811 1.347-1.04 1.311-1.919 1.526-1.89.48.044 1.247.291 2.666-.254.817 1.578 1.806 1.498 1.526 2.363z" style="fill:var(--color1, #ec3c05)"/><path d="M15.426 8.886c-.631-.429-.695-.858-1.319-.996-.767-.189-1.591-.073-2.071-.167-.186-.022-1.877.48-2.924 1.032-.989.531 1.333-.96 1.906-1.723 1.698-.516 1.211-.538 2.035-.727.745-.152.709-.109 1.225-.262.523-.145.967-.873.466-1.287-.308-.233-1.24.124-2.157.131-.415.03-2.086.808-2.465 1.026-.946.502-1.641 1.214-2.2 1.592-.781.575.874-1.469 1.569-2.319.201-.291.294-.349.552-.691.402-.56-.122-1.389-.379-1.287-.316.145-.516.77-.896.989-.136.08-.595.764-1.017 1.244-.316.349-.545.509-.846.909-.516.618-.616 1.105-1.06 1.76-.272.392-.473.494-.717.945-1.326 2.53-.946 3.672-2.207 5.46-.387.574-.824.698-1.441 1.032-.574 4.232 1.319 6.595 1.311 6.58 1.598-.923 2.451-1.309 4.114-1.25.624.036.953.305 1.569.261.573-.036.867-.254 1.441-.429.882-.298 1.361-.546 2.243-.822.631-.182 1.003-.189 1.613-.429.523-.197.272-.015.638-.429.466-.545.358-.96.76-1.847.595-1.214.53-1.374.215-1.505.201-.625.258-1.025.208-1.679-.065-.509.151-.865-.379-1.243-.724-.567-2.243-1.847-2.623-1.854-.588.007-2.279-.058-3.139.516-.193.153-.251.276-.086-.167.036-.08 2.143-1.745 2.372-1.767 1.503-.033 1.882-.095 1.953-.129.149.004 1.427 1.581 2.204 1.031.287-.196.43-.371.552-.683-.108-.225-.581-.56-1.018-.815zm-5.64 4.901c.688-.516.731-.109 2.329-.989 0-.022.659.676 1.699.989-.007.007.279 1.374.846 1.847-1.348 1.025-1.312 1.905-1.527 1.89-.48-.058-1.247-.306-2.666.219-.824-1.556-1.806-1.469-1.527-2.371.301-1.032.265-1.163.846-1.585z" style="fill:var(--color2, #000)"/></symbol><symbol id="icon-innovation" viewBox="0 0 31 32"><path fill="#ec3c05" d="M18.698 2.365 16.477.462a.653.653 0 0 0-.852 0l-2.293 1.966a.654.654 0 0 0 .426 1.153h.655v1.31c0 .362.293.655.655.655h1.966a.655.655 0 0 0 .655-.655v-1.31h.668a.655.655 0 0 0 .341-1.214zM13.417 29.691l2.221 1.903a.653.653 0 0 0 .852 0l2.293-1.966a.655.655 0 0 0-.426-1.152h-.655v-1.31a.655.655 0 0 0-.655-.655h-1.966a.655.655 0 0 0-.655.655v1.31h-.655a.655.655 0 0 0-.354 1.214zM29.387 18.99l1.903-2.221a.653.653 0 0 0 0-.852l-1.966-2.293a.655.655 0 0 0-1.152.426v.655h-1.31a.655.655 0 0 0-.655.655v1.966c0 .362.293.655.655.655h1.31v.655a.655.655 0 0 0 1.214.354zM2.061 13.708.158 15.929a.653.653 0 0 0 0 .852l1.966 2.293a.655.655 0 0 0 1.152-.426v-.655h1.31a.655.655 0 0 0 .655-.655v-1.966a.655.655 0 0 0-.655-.655h-1.31v-.655a.655.655 0 0 0-1.214-.354z" style="fill:var(--color1, #ec3c05)"/><path d="m21.601 25.042-1.276-5.104 1.286-7.068a.653.653 0 0 0-.528-.761.651.651 0 0 0-.761.527l-1.213 6.668H15.07a.655.655 0 1 0 0 1.31h.471l-1.107 4.428a.655.655 0 1 0 1.271.316l1.186-4.745h2.254l1.186 4.745a.656.656 0 0 0 .794.478.653.653 0 0 0 .476-.794z" style="fill:var(--color2, #000)"/><path d="m18.561 18.648.476-2.621H6.551v9.828h1.966v-7.207h10.044zM21.701 16.028l-.477 2.621h1.707v7.207h1.966v-9.828h-3.195zM15.069 12.752V6.855H7.862v5.897h2.621v.655c0 .596-.299.655-1.31.655-1.346 0-1.31.714-1.31 1.31h7.207c0-.596 0-1.31-1.31-1.31-1.011 0-1.31-.059-1.31-.655v-.655h2.621zm-5.897-1.31V8.166h4.586v3.276H9.172z" style="fill:var(--color2, #000)"/></symbol><symbol id="icon-phone" viewBox="0 0 27 32"><path d="M18.548 6.492v1.874a.94.94 0 0 0 .928.951h5.434a.938.938 0 0 0 .929-.951V6.492h-7.291zM25.832 12.563h-2.781a.748.748 0 0 0-.744.758v2.083c0 .423.328.759.744.759h2.781a.746.746 0 0 0 .744-.759v-2.083a.748.748 0 0 0-.744-.758z" style="fill:var(--color2, #000)"/><path fill="#ec3c05" d="M25.832 23.319h-2.781a.747.747 0 0 0-.744.762v2.079c0 .419.328.763.744.763h2.781a.752.752 0 0 0 .744-.763v-2.079a.747.747 0 0 0-.744-.762z" style="fill:var(--color1, #ec3c05)"/><path d="M22.87 28.404H3.558a.75.75 0 0 0-.744.754v2.087a.75.75 0 0 0 .744.755H22.87a.744.744 0 0 0 .736-.755v-2.087a.743.743 0 0 0-.736-.754z" style="fill:var(--color2, #000)"/><path fill="#ec3c05" d="M4.269 26.162v-2.083a.75.75 0 0 0-.744-.758H.736a.743.743 0 0 0-.732.758v2.083c0 .418.328.763.732.763h2.789a.759.759 0 0 0 .745-.763z" style="fill:var(--color1, #ec3c05)"/><path d="M.736 16.162h2.789a.75.75 0 0 0 .744-.758v-2.083a.754.754 0 0 0-.744-.759H.736a.747.747 0 0 0-.736.759v2.083c0 .422.328.758.736.758zM1.362 9.32h5.43a.942.942 0 0 0 .932-.951V6.496H.433v1.873c0 .524.412.951.929.951z" style="fill:var(--color2, #000)"/><path fill="#ec3c05" d="M20.259 12.563H17.47a.747.747 0 0 0-.736.758v2.083c0 .423.328.759.736.759h2.789a.745.745 0 0 0 .737-.759v-2.083a.747.747 0 0 0-.737-.758zM23.816 20.805v-2.083a.757.757 0 0 0-.744-.759h-2.789c-.404 0-.732.344-.732.759v2.083c0 .426.328.763.732.763h2.789a.752.752 0 0 0 .744-.763z" style="fill:var(--color1, #ec3c05)"/><path d="M17.469 26.923h2.789c.408 0 .737-.345.737-.763v-2.079a.746.746 0 0 0-.737-.763h-2.789a.745.745 0 0 0-.736.763v2.079c0 .418.328.763.736.763zM18.235 20.805v-2.083a.75.75 0 0 0-.736-.759H14.71a.755.755 0 0 0-.74.759v2.083c0 .426.336.763.74.763h2.789a.745.745 0 0 0 .736-.763z" style="fill:var(--color2, #000)"/><path fill="#ec3c05" d="M11.897 26.923h2.781a.758.758 0 0 0 .744-.763v-2.079a.752.752 0 0 0-.744-.763h-2.781a.747.747 0 0 0-.744.763v2.079c0 .418.328.763.744.763z" style="fill:var(--color1, #ec3c05)"/><path d="M14.679 16.162a.75.75 0 0 0 .744-.758v-2.083a.754.754 0 0 0-.744-.759h-2.781a.75.75 0 0 0-.745.759v2.083c0 .422.328.758.745.758h2.781z" style="fill:var(--color2, #000)"/><path fill="#ec3c05" d="M12.663 20.805v-2.083a.757.757 0 0 0-.744-.759H9.13c-.404 0-.733.344-.733.759v2.083c0 .426.328.763.733.763h2.789a.752.752 0 0 0 .744-.763z" style="fill:var(--color1, #ec3c05)"/><path d="M6.356 26.923h2.789a.758.758 0 0 0 .744-.763v-2.079a.752.752 0 0 0-.744-.763H6.356a.746.746 0 0 0-.737.763v2.079c0 .418.328.763.737.763z" style="fill:var(--color2, #000)"/><path fill="#ec3c05" d="M9.107 16.162a.744.744 0 0 0 .736-.758v-2.083a.747.747 0 0 0-.736-.759H6.318a.747.747 0 0 0-.737.759v2.083c0 .422.328.758.737.758h2.789z" style="fill:var(--color1, #ec3c05)"/><path d="M2.815 18.723v2.083a.75.75 0 0 0 .744.758h2.789a.745.745 0 0 0 .733-.758v-2.083c0-.419-.328-.762-.733-.762H3.559a.757.757 0 0 0-.744.762zM7.724 5.748c0-.541.444-1.472 5.418-1.488 4.962-.016 5.406.947 5.406 1.488v.156h7.291v-.197C25.839 4.735 24.13 0 13.142 0 2.142 0 .433 4.735.433 5.707v.197h7.291v-.156z" style="fill:var(--color2, #000)"/></symbol><symbol id="icon-planning" viewBox="0 0 30 32"><path fill="#ec3c05" d="M14.968 11.001c2.867 0 5.184-2.356 5.184-5.252 0-2.899-2.317-5.243-5.184-5.243S9.784 2.85 9.784 5.749c0 2.896 2.317 5.252 5.184 5.252z" style="fill:var(--color1, #ec3c05)"/><path d="M24.202 24.658c1.429-1.289 2.276-2.891 2.276-4.625 0-4.263-5.114-7.72-11.422-7.72l-.088.002c-.029.001-.059-.002-.089-.002-6.308 0-11.422 3.456-11.422 7.72 0 1.735.847 3.336 2.276 4.625C2.247 25.516 0 26.86 0 28.371c0 2.592 3.717 4.621 14.879 3.092l.089.013.088-.013c11.163 1.528 14.879-.5 14.879-3.092 0-1.511-2.247-2.854-5.734-3.713zm-1.108-3.759c-.039-.002-.079-.006-.118-.006a2.035 2.035 0 1 0 0 4.069c.039 0 .079-.004.118-.006v2.168l-8.126 2.831-8.125-2.831v-2.168c.039.002.078.006.118.006a2.035 2.035 0 1 0 0-4.069c-.04 0-.079.004-.118.006v-4.603l8.125 2.647 8.126-2.647v4.603z" style="fill:var(--color2, #000)"/></symbol><symbol id="icon-envelope" viewBox="0 0 43 32"><path d="M38.667 0H4C1.794 0 0 1.794 0 4v24c0 2.206 1.794 4 4 4h34.667c2.206 0 4-1.794 4-4V4c0-2.206-1.794-4-4-4zm0 2.667c.181 0 .353.038.511.103L21.334 18.236 3.49 2.77a1.32 1.32 0 0 1 .511-.103h34.667zm0 26.666H4A1.334 1.334 0 0 1 2.667 28V5.587L20.46 21.008a1.335 1.335 0 0 0 1.748 0L40.001 5.587V28c0 .736-.598 1.333-1.333 1.333z"/></symbol><symbol id="icon-smartphone" viewBox="0 0 20 32"><path d="M17 0H3C1.346 0 0 1.346 0 3v26c0 1.654 1.346 3 3 3h14c1.654 0 3-1.346 3-3V3c0-1.654-1.346-3-3-3zM3 2h14a1 1 0 0 1 1 1v21H2V3a1 1 0 0 1 1-1zm14 28H3a1 1 0 0 1-1-1v-3h16v3a1 1 0 0 1-1 1z"/><path d="M4.707 27.478c.391.365.391.956 0 1.321s-1.024.365-1.414 0c-.391-.365-.391-.956 0-1.321s1.024-.365 1.414 0z"/></symbol><symbol id="rails" viewBox="0 0 83 32"><path d="M72.642 27.168v4.046h6.892c1.411 0 3.837-1.096 3.921-4.158v-1.565c0-2.616-2.024-4.158-3.921-4.158h-3.436v-1.878h6.809v-4.07h-6.535c-1.685 0-3.942 1.476-3.942 4.226v1.409a4.054 4.054 0 0 0 3.942 4.158c4.743.023-1.137 0 3.245 0v1.967l-6.976.023zm-36.932-.984s3.689-.337 3.689-5.39-4.469-5.523-4.469-5.523h-8.053v15.942h4.046v-3.845l3.498 3.845h5.987l-4.698-5.03zm-1.56-3.266h-3.224v-3.644h3.245s.905.357.905 1.81-.929 1.834-.929 1.834h.002zm15.24-7.534h-4.111c-2.93 0-3.921 2.817-3.921 4.158v11.671h4.111v-2.794h3.858v2.794h3.983V19.542c0-3.399-2.909-4.158-3.921-4.158zm-.062 8.518h-3.879v-3.869s0-.871 1.286-.871h1.411c1.137 0 1.158.871 1.158.871v3.869h.023zm5.862-8.518h4.278v15.832H55.19V15.384zm10.286 11.739V15.384h-4.257v15.832h10.012v-4.093h-5.755zM1.477 31.214h16.654S14.949 15.807 25.488 9.57c2.298-1.184 9.613-5.611 21.587 3.78.378-.337.738-.603.738-.603S36.851 1.141 24.645 2.44c-6.133.582-13.68 6.506-18.107 14.332S1.48 31.216 1.48 31.216l-.003-.003zm0 0h16.654S14.949 15.807 25.488 9.57c2.298-1.184 9.613-5.611 21.587 3.78.378-.337.738-.603.738-.603S36.851 1.141 24.645 2.44c-6.133.582-13.68 6.506-18.107 14.332S1.48 31.216 1.48 31.216l-.003-.003zm0 0h16.654S14.949 15.807 25.488 9.57c2.298-1.184 9.613-5.611 21.587 3.78.378-.337.738-.603.738-.603S36.851 1.141 24.645 2.44c-6.157.582-13.703 6.506-18.128 14.332S1.48 31.216 1.48 31.216l-.003-.003zM36.175 3.689l.083-1.497c-.19-.112-.717-.381-2.045-.783l-.083 1.477c.697.245 1.37.514 2.045.806v-.003zM34.171 8.43l-.083 1.409c.697.024 1.39.112 2.087.269l.083-1.385a14.07 14.07 0 0 0-2.087-.29V8.43zm-7.8-6.976h.211L26.159.09c-.655 0-1.328.044-2.024.133l.402 1.32c.61-.068 1.223-.089 1.834-.089zm1.013 8.228.485 1.542a12.934 12.934 0 0 1 1.834-.783l-.464-1.477c-.717.224-1.328.47-1.855.715v.003zm-9.572-5.88-.95-1.542c-.527.29-1.075.603-1.643.963l.97 1.565a20.966 20.966 0 0 1 1.623-.984v-.003zm4.323 10.061 1.012 1.61c.357-.558.78-1.072 1.244-1.589l-.95-1.521c-.485.47-.929.983-1.307 1.497v.003zm-3.058 7.2 1.709 1.432c.083-.871.232-1.745.443-2.616l-1.518-1.276c-.274.827-.464 1.654-.631 2.46h-.003zM9.845 10.441 8.348 9.056a37.91 37.91 0 0 0-1.56 1.677l1.623 1.477c.443-.603.929-1.208 1.432-1.766l.003-.003zm-6.368 9.996-2.424-.939a62.122 62.122 0 0 0-1.054 2.684l2.423.939c.274-.759.717-1.855 1.054-2.684zm15.285 6.306c.042 1.184.149 2.147.253 2.817l2.53.963a31.5 31.5 0 0 1-.506-2.906l-2.277-.874z"/></symbol><symbol id="gpay" viewBox="0 0 80 32"><path d="M80 7.999 69.553 31.332h-3.227l3.877-8.167-6.87-15.168h3.4L71.7 19.629h.067l4.828-11.633L80 7.999zm-43.39 7.22v9.447h-3.277V1.334h8.69c.063-.002.133-.002.205-.002 2.078 0 3.975.765 5.428 2.03l-.01-.007c1.527 1.257 2.382 3.05 2.352 4.928v.075c0 1.97-.915 3.725-2.342 4.865l-.013.01c-1.517 1.328-3.393 1.988-5.623 1.988h-5.41zm-.008-11.012v8.148h5.493c1.217.033 2.392-.408 3.242-1.207.84-.75 1.318-1.777 1.318-2.852 0-1.072-.478-2.1-1.318-2.85a4.457 4.457 0 0 0-3.092-1.24c-.053 0-.108 0-.16.003h-5.483zm19.97 3.792c2.09 0 3.74.58 4.95 1.74 1.207 1.16 1.81 2.752 1.81 4.773v9.643h-2.703v-2.173h-.123c-1.17 1.79-2.727 2.683-4.667 2.683-1.66 0-3.047-.51-4.167-1.533a4.965 4.965 0 0 1-1.675-3.723c0-.037 0-.077.003-.115v.005c0-1.617.59-2.903 1.767-3.86s2.75-1.433 4.718-1.437c1.677 0 3.06.32 4.142.957V14.254c0-1.02-.45-1.938-1.162-2.56l-.005-.002a3.9 3.9 0 0 0-2.695-1.072h-.035.003c-1.58 0-2.83.693-3.747 2.078l-2.49-1.627c1.367-2.043 3.392-3.068 6.077-3.068V8zm-3.655 11.368v.023c0 .77.368 1.455.935 1.89l.005.005c.623.51 1.4.78 2.198.767a4.443 4.443 0 0 0 3.177-1.373 4.362 4.362 0 0 0 1.407-3.21v-.013c-.883-.732-2.11-1.097-3.687-1.097-1.15 0-2.107.29-2.873.867-.773.58-1.16 1.29-1.16 2.143l-.003-.003zM13.602 1.334h.167a13.18 13.18 0 0 1 8.943 3.483l-.01-.008-3.88 3.808c-1.33-1.24-3.12-2-5.087-2-.048 0-.093 0-.14.003h.007a8.128 8.128 0 0 0-7.62 5.442l-.018.057c-.27.76-.428 1.64-.428 2.553s.157 1.793.445 2.607l-.018-.055c1.117 3.21 4.11 5.477 7.635 5.5h.003c1.837 0 3.41-.46 4.633-1.27a6.174 6.174 0 0 0 2.712-4.058h-7.347v-5.132h12.83c.157.898.233 1.8.233 2.71 0 4.057-1.48 7.49-4.047 9.81-2.253 2.04-5.348 3.22-9.018 3.22h-.055c-5.232 0-9.775-2.948-12.063-7.273l-.035-.075c-.912-1.74-1.448-3.8-1.448-5.987s.535-4.248 1.482-6.06l-.035.072c2.322-4.4 6.865-7.348 12.098-7.348h.06z"/></symbol><symbol id="ps" viewBox="0 0 40 32"><path d="M14.975.326v29.246l6.525 2.101V7.144c0-1.15.506-1.919 1.324-1.651 1.06.301 1.266 1.356 1.266 2.509v9.794c4.069 1.989 7.27-.004 7.27-5.255 0-5.395-1.876-7.791-7.396-9.711C21.785 2.084 17.75.854 14.979.326h-.004zm7.76 27.07 10.494-3.791c1.191-.43 1.376-1.041.41-1.364-.976-.32-2.729-.231-3.929.205l-7.009 2.499V20.97l.4-.141s2.001-.7 4.855-1.025c2.826-.3 6.309.049 9.061 1.101 3.08 1.001 3.401 2.454 2.626 3.454s-2.704 1.726-2.704 1.726l-14.24 5.179v-3.829l.035-.039zM3.014 27c-3.166-.909-3.69-2.78-2.254-3.869 1.335-.975 3.599-1.751 3.599-1.751l9.36-3.355v3.855L7.01 24.334c-1.175.451-1.375 1.054-.399 1.376.976.325 2.729.25 3.905-.2l3.23-1.176v3.456c-.201.049-.426.074-.651.121-3.23.551-6.659.326-10.061-.799l-.02-.113z"/></symbol><symbol id="pay" viewBox="0 0 74 32"><path d="M13.502 4.565C12.634 5.601 11.25 6.418 9.865 6.3c-.173-1.401.505-2.887 1.299-3.805.868-1.064 2.382-1.818 3.607-1.881.145 1.458-.418 2.887-1.267 3.951h-.002zm1.251 2.013c-2.003-.118-3.722 1.154-4.671 1.154-.969 0-2.425-1.096-4.013-1.064-2.061.03-3.978 1.209-5.031 3.092-2.167 3.759-.563 9.332 1.525 12.395 1.025 1.516 2.252 3.178 3.868 3.12 1.525-.058 2.132-1.006 3.978-1.006 1.862 0 2.393 1.006 4.013.978 1.671-.03 2.723-1.516 3.748-3.035 1.17-1.724 1.645-3.397 1.673-3.487-.03-.03-3.231-1.267-3.261-5.001-.028-3.122 2.522-4.608 2.64-4.696-1.44-2.16-3.692-2.393-4.47-2.453v.002zM26.338 2.35v22.735h3.492v-7.772h4.83c4.412 0 7.514-3.065 7.514-7.495 0-4.433-3.044-7.468-7.396-7.468h-8.439zm3.493 2.977h4.025c3.028 0 4.756 1.632 4.756 4.505s-1.728 4.523-4.772 4.523h-4.013l.005-9.028zm18.72 19.931c2.195 0 4.228-1.119 5.151-2.901h.072v2.73h3.231V13.77c0-3.279-2.596-5.398-6.591-5.398-3.708 0-6.445 2.144-6.547 5.088h3.145c.258-1.401 1.542-2.317 3.302-2.317 2.135 0 3.332 1.006 3.332 2.859v1.253l-4.357.265c-4.052.247-6.247 1.922-6.247 4.839 0 2.945 2.264 4.899 5.511 4.899l-.002-.002zm.937-2.695c-1.862 0-3.046-.905-3.046-2.289 0-1.431 1.142-2.262 3.321-2.393l3.877-.247v1.283c0 2.13-1.784 3.646-4.152 3.646zm11.83 8.707c3.404 0 5.003-1.313 6.399-5.296L73.846 8.59h-3.547l-4.11 13.431h-.072L62.007 8.59h-3.648l5.91 16.553-.316 1.006c-.533 1.705-1.396 2.361-2.942 2.361a11.3 11.3 0 0 1-1.025-.058v2.73c.203.058 1.068.085 1.332.09v-.002z"/></symbol><symbol id="npm" viewBox="0 0 80 32"><path d="M0 .447v26.668h22.22v4.44H40v-4.44h40V.447H0zM22.22 22.66h-4.44V9.328h-4.45V22.66H4.45V4.89h17.77v17.77zm13.333 0v4.453H26.67V4.891h17.78v17.772l-8.897-.003zm40.004 0h-4.432V9.328h-4.453V22.66h-4.45V9.328h-4.433V22.66h-8.903V4.89h26.673l-.003 17.77zM35.55 9.332H40v8.89h-4.45v-8.89z"/></symbol><symbol id="uber_eats" viewBox="0 0 40 32"><path d="M0 .584v8.484c0 3.2 2.234 5.316 5.134 5.316 1.416 0 2.684-.55 3.584-1.5v1.266h2.016V.584H8.7V8.95c0 2.15-1.45 3.6-3.334 3.6-1.9 0-3.334-1.416-3.334-3.6V.584H-.001zm12.25 0V14.15h1.916V12.9a4.917 4.917 0 0 0 3.526 1.484h.025-.001.034a5.15 5.15 0 0 0 5.15-5.15v-.017.001-.016a5.15 5.15 0 0 0-5.15-5.15h-.035.001c-1.384 0-2.616.566-3.55 1.466V.584H12.25zm16.516 3.482c-2.934 0-5.084 2.35-5.084 5.134 0 2.95 2.284 5.134 5.25 5.134 1.8 0 3.284-.766 4.266-2.084l-1.416-1.05c-.734.984-1.7 1.466-2.85 1.466-1.666 0-3-1.216-3.266-2.816H33.7V9.2c0-2.934-2.084-5.134-4.934-5.134zm10.318.118c-1.084 0-1.866.5-2.35 1.3V4.268h-1.95v9.884h1.966v-5.65c0-1.5.934-2.5 2.2-2.5h.816V4.186h-.684l.001-.001zM28.716 5.766c1.466 0 2.684 1.016 3.016 2.534h-6.034c.35-1.516 1.566-2.534 3.016-2.534h.001zM17.584 5.8c1.85 0 3.384 1.5 3.384 3.416 0 1.9-1.534 3.45-3.384 3.45h-.017a3.4 3.4 0 0 1-3.4-3.4v-.053.003A3.4 3.4 0 0 1 17.583 5.8h.001zM0 17.6v13.566h9.534V28.85h-6.95v-3.366H9.35v-2.25H2.584v-3.316h6.95v-2.316L0 17.601zm24.266.7v2.85h-1.934v2.266h1.934v5.334c0 1.35.95 2.416 2.666 2.416h2.734V28.9h-1.9c-.584 0-.95-.266-.95-.8v-4.684h2.85V21.15h-2.85V18.3h-2.55zm-8.732 2.6c-2.984 0-5.334 2.334-5.334 5.266 0 2.916 2.35 5.25 5.334 5.25 1.2 0 2.316-.416 3.2-1.15v.9h2.534V21.15h-2.534v.9a4.907 4.907 0 0 0-3.166-1.15h-.035.001zm19.532 0c-2.65 0-4.5 1.084-4.5 3.2 0 1.45 1.016 2.4 3.216 2.866l2.416.566c.95.184 1.2.434 1.2.834 0 .616-.734 1.016-1.884 1.016-1.45 0-2.284-.334-2.616-1.434h-2.55c.366 2.084 1.916 3.466 5.084 3.466 2.9 0 4.566-1.384 4.566-3.316 0-1.366-.966-2.384-3.016-2.816l-2.15-.45c-1.25-.234-1.65-.5-1.65-.934 0-.6.6-.966 1.716-.966 1.2 0 2.084.334 2.334 1.4h2.534c-.134-2.05-1.65-3.434-4.7-3.434v.001zM15.75 23.1c1.684 0 3.034 1.35 3.034 3.066s-1.35 3.05-3.034 3.05h-.016a3.034 3.034 0 0 1-3.034-3.034v-.017.001a3.055 3.055 0 0 1 3.05-3.066z"/></symbol><symbol id="icon-facebook" viewBox="0 0 32 32"><path d="M21.329 5.313h2.921V.225C23.746.156 22.013 0 19.994 0c-4.212 0-7.097 2.649-7.097 7.519V12H8.249v5.688h4.648V32h5.699V17.689h4.46l.708-5.688h-5.169V8.082c.001-1.644.444-2.769 2.735-2.769z"/></symbol><symbol id="icon-instagram" viewBox="0 0 32 32"><path d="M31.969 9.408c-.075-1.7-.35-2.869-.744-3.882a7.806 7.806 0 0 0-1.851-2.838A7.867 7.867 0 0 0 26.542.844C25.523.45 24.36.175 22.66.1 20.947.019 20.403 0 16.059 0s-4.888.019-6.595.094c-1.7.075-2.869.35-3.882.744a7.803 7.803 0 0 0-2.838 1.85A7.867 7.867 0 0 0 .9 5.52C.506 6.539.231 7.702.156 9.402c-.081 1.713-.1 2.257-.1 6.601s.019 4.888.094 6.595c.075 1.7.35 2.869.744 3.882a7.895 7.895 0 0 0 1.85 2.838 7.867 7.867 0 0 0 2.832 1.844c1.019.394 2.182.669 3.882.744 1.706.075 2.25.094 6.595.094s4.888-.019 6.595-.094c1.7-.075 2.869-.35 3.882-.744a8.184 8.184 0 0 0 4.682-4.682c.394-1.019.669-2.182.744-3.882.075-1.707.094-2.251.094-6.595s-.006-4.888-.081-6.595zm-2.882 13.065c-.069 1.563-.331 2.407-.55 2.969a5.31 5.31 0 0 1-3.038 3.038c-.563.219-1.413.481-2.969.55-1.688.075-2.194.094-6.464.094s-4.782-.019-6.464-.094c-1.563-.069-2.407-.331-2.969-.55a4.926 4.926 0 0 1-1.838-1.194 4.974 4.974 0 0 1-1.194-1.838c-.219-.563-.481-1.413-.55-2.969-.075-1.688-.094-2.194-.094-6.464s.019-4.782.094-6.464c.069-1.563.331-2.407.55-2.969a4.868 4.868 0 0 1 1.2-1.838A4.974 4.974 0 0 1 6.639 3.55c.563-.219 1.413-.481 2.969-.55 1.688-.075 2.194-.094 6.464-.094 4.276 0 4.782.019 6.464.094 1.563.069 2.407.331 2.969.55a4.914 4.914 0 0 1 1.838 1.194 4.974 4.974 0 0 1 1.194 1.838c.219.563.481 1.413.55 2.969.075 1.688.094 2.194.094 6.464s-.019 4.77-.094 6.458z"/><path d="M16.059 7.783c-4.538 0-8.22 3.682-8.22 8.22s3.682 8.22 8.22 8.22c4.539 0 8.22-3.682 8.22-8.22s-3.682-8.22-8.22-8.22zm0 13.552a5.333 5.333 0 0 1 0-10.664 5.333 5.333 0 0 1 0 10.664zM26.524 7.458a1.919 1.919 0 1 1-3.838 0 1.919 1.919 0 0 1 3.838 0z"/></symbol><symbol id="icon-linkedin-1" viewBox="0 0 32 32"><path d="M31.992 32v-.001H32V20.263c0-5.741-1.236-10.164-7.948-10.164-3.227 0-5.392 1.771-6.276 3.449h-.093v-2.913h-6.364v21.364h6.627V21.42c0-2.785.528-5.479 3.977-5.479 3.399 0 3.449 3.179 3.449 5.657v10.401h6.62zM.528 10.636h6.635V32H.528V10.636zM3.843 0C1.722 0 0 1.721 0 3.843s1.721 3.879 3.843 3.879c2.121 0 3.843-1.757 3.843-3.879A3.846 3.846 0 0 0 3.843 0z"/></symbol><symbol id="icon-twitter" viewBox="0 0 36 32"><path d="M35.556 4.976c-1.322.58-2.731.964-4.2 1.151a7.247 7.247 0 0 0 3.207-4.029 14.561 14.561 0 0 1-4.622 1.764 7.306 7.306 0 0 0-5.324-2.307c-4.035 0-7.284 3.276-7.284 7.291 0 .578.049 1.133.169 1.662-6.06-.296-11.422-3.2-15.024-7.624a7.337 7.337 0 0 0-.998 3.684 7.3 7.3 0 0 0 3.238 6.058 7.188 7.188 0 0 1-3.293-.898v.08c0 3.542 2.527 6.484 5.84 7.162-.593.162-1.24.24-1.911.24-.467 0-.938-.026-1.38-.124.944 2.887 3.624 5.009 6.811 5.078a14.647 14.647 0 0 1-9.038 3.109 13.52 13.52 0 0 1-1.744-.1c3.229 2.082 7.056 3.271 11.182 3.271 13.413 0 20.747-11.111 20.747-20.742 0-.322-.011-.633-.027-.942 1.447-1.027 2.662-2.309 3.653-3.784z"/></symbol><symbol id="icon-close_btn" viewBox="0 0 32 32"><path d="m19.525 16 10.75-10.725a2.509 2.509 0 1 0-3.55-3.55L16 12.475 5.275 1.725a2.509 2.509 0 1 0-3.55 3.55L12.475 16 1.725 26.725a2.5 2.5 0 0 0 0 3.55 2.5 2.5 0 0 0 3.55 0L16 19.525l10.725 10.75a2.5 2.5 0 0 0 3.55 0 2.5 2.5 0 0 0 0-3.55L19.525 16z"/></symbol><symbol id="leaf" viewBox="0 0 24 24"><path d="M15.357 21.332c-.252.086-.587.086-.839.173.252-.087.587-.173.839-.173ZM22.323 14.623c-.084.344-.169.602-.252.86.083-.258.168-.602.252-.86ZM21.988 15.57c-.169.343-.335.689-.504 1.032.167-.258.335-.603.504-1.032ZM22.574 13.505c0 .258-.083.517-.168.775.085-.258.085-.516.168-.774ZM22.658 12.043c0 .343 0 .774-.084 1.117.084-.343.084-.774.084-1.117ZM14.435 21.418c-.337.087-.672.087-1.007.087.335 0 .67 0 1.007-.087ZM22.406 14.28c0 .085-.083.172-.083.258 0-.087 0-.173.083-.258ZM22.574 13.16c0 .086 0 .173-.083.344.083-.171.083-.257.083-.344ZM15.442 21.247c-.085 0-.085.085 0 0-.085 0-.085.085 0 0ZM21.987 15.483c0 .085 0 .085-.083.172.083-.085.083-.172.083-.172Z"/><path d="M20.477 18.15c-2.686-3.269-6.462-6.881-9.146-9.375a.788.788 0 0 1-.252-.601c0-.516.335-.86.838-.86.169 0 .42.085.587.173h.084c3.776 3.527 6.797 6.536 8.98 9.117l.503-1.032s0-.086.083-.173c.084-.258.169-.602.252-.86 0-.085.084-.172.084-.258.083-.258.083-.516.168-.774 0-.085 0-.172.083-.343-.083-.347-.083-.778-.083-1.121 0-6.71-6.88-10.237-13.427-10.322C3.274 1.635 0 0 0 0s.839 8.774 2.6 13.677c2.017 5.591 5.708 7.828 10.828 7.828.335 0 .672 0 1.007-.085h.083c.252 0 .587-.086.839-.173h.083c.587-.173 1.176-.344 1.763-.602.503-.258 1.007-.516 1.51-.86 1.68 1.98 2.77 3.528 2.77 4.215H24c-.083-1.292-1.509-3.527-3.523-5.85Z"/></symbol><symbol id="user" viewBox="0 0 18 18"><path d="M9 9a3 3 0 1 0 0-6 3 3 0 1 0 0 6Zm0 1.5c-2.003 0-6 1.005-6 3v.75c0 .412.337.75.75.75h10.5c.412 0 .75-.338.75-.75v-.75c0-1.995-3.998-3-6-3Z"/></symbol><symbol id="phone" viewBox="0 0 14 14"><path d="m11.996 9.122-1.838-.21a1.44 1.44 0 0 0-1.187.413l-1.332 1.332a10.888 10.888 0 0 1-4.769-4.77L4.21 4.55a1.44 1.44 0 0 0 .412-1.187l-.21-1.824a1.448 1.448 0 0 0-1.44-1.28H1.72C.902.257.222.937.272 1.754c.384 6.18 5.327 11.116 11.5 11.5.817.05 1.498-.63 1.498-1.448v-1.252a1.434 1.434 0 0 0-1.274-1.433Z"/></symbol><symbol id="mail" viewBox="0 0 18 18"><path d="M15 3H3c-.825 0-1.492.675-1.492 1.5l-.008 9c0 .825.675 1.5 1.5 1.5h12c.825 0 1.5-.675 1.5-1.5v-9c0-.825-.675-1.5-1.5-1.5Zm-.3 3.188L9.398 9.502a.759.759 0 0 1-.796 0L3.3 6.188a.637.637 0 1 1 .675-1.08L9 8.25l5.025-3.143a.637.637 0 1 1 .675 1.08Z"/></symbol><symbol id="check" viewBox="0 0 10 8"><path d="M9.473.807a.667.667 0 0 0-.946 0L3.56 5.78 1.473 3.687a.681.681 0 1 0-.946.98l2.56 2.56a.667.667 0 0 0 .946 0l5.44-5.44a.667.667 0 0 0 0-.98Z"/></symbol><symbol id="burger" viewBox="0 0 44 44"><path d="M8.8 29.333c0 .81.657 1.467 1.467 1.467h23.466a1.467 1.467 0 1 0 0-2.933H10.267c-.81 0-1.467.656-1.467 1.466ZM8.8 22c0 .81.657 1.466 1.467 1.466h23.466a1.467 1.467 0 1 0 0-2.933H10.267c-.81 0-1.467.657-1.467 1.467ZM10.267 13.2a1.467 1.467 0 1 0 0 2.933h23.466a1.467 1.467 0 0 0 0-2.933H10.267Z"/></symbol><symbol id="close" viewBox="0 0 44 44"><path d="M33 13.216 30.784 11 22 19.784 13.216 11 11 13.216 19.784 22 11 30.784 13.216 33 22 24.216 30.784 33 33 30.784 24.216 22 33 13.216Z"/></symbol></defs></svg>