<svg aria-hidden="true" style="position: absolute; width: 0; height: 0; overflow: hidden;" version="1.1" xmlns="http://www.w3.org/2000/svg" xmlns:xlink="http://www.w3.org/1999/xlink">
<defs>
<symbol id="icon-effective_team" viewBox="0 0 32 32">
<path fill="#ec3c05" style="fill: var(--color1, #ec3c05)" d="M29.666 9.876c-1.598 0.945-2.458 1.331-4.114 1.244-0.623-0.007-0.953-0.276-1.569-0.218-0.573 0.022-0.867 0.24-1.441 0.436-0.881 0.276-1.362 0.524-2.286 0.815-0.587 0.167-0.96 0.175-1.569 0.385-0.523 0.225-0.272 0.044-0.638 0.472-0.473 0.531-0.358 0.945-0.803 1.854-0.552 1.193-0.488 1.352-0.172 1.498-0.208 0.61-0.258 1.018-0.208 1.679 0.057 0.502-0.15 0.85 0.38 1.25 0.724 0.546 2.243 1.825 2.631 1.846 0.58-0.021 2.272 0.044 3.132-0.559 0.194-0.124 0.251-0.247 0.086 0.218-0.035 0.058-2.143 1.723-2.372 1.715-1.623 0.053-1.935 0.13-1.964 0.168-0.187-0.073-1.43-1.579-2.192-1.026-0.294 0.182-0.43 0.357-0.545 0.684 0.1 0.211 0.574 0.546 1.010 0.822 0.631 0.408 0.688 0.836 1.319 0.989 0.767 0.174 1.584 0.058 2.071 0.123 0.187 0.051 1.878-0.451 2.931-1.025 0.975-0.509-1.34 0.982-1.906 1.716-1.706 0.546-1.225 0.567-2.035 0.735-0.752 0.174-0.717 0.131-1.233 0.298-0.53 0.131-0.968 0.865-0.465 1.25 0.301 0.255 1.24-0.102 2.164-0.131 0.409-0.007 2.078-0.785 2.458-0.988 0.946-0.516 1.641-1.229 2.2-1.636 0.774-0.545-0.874 1.505-1.57 2.363-0.201 0.277-0.294 0.334-0.544 0.691-0.415 0.546 0.114 1.375 0.379 1.244 0.308-0.116 0.509-0.741 0.846-0.945 0.172-0.095 0.631-0.778 1.061-1.244 0.315-0.363 0.545-0.523 0.846-0.901 0.509-0.64 0.616-1.127 1.061-1.811 0.272-0.357 0.465-0.465 0.716-0.901 1.326-2.545 0.939-3.686 2.208-5.504 0.387-0.538 0.824-0.669 1.441-0.989 0.573-4.239-1.326-6.609-1.312-6.616zM23.517 16.623c-0.301 1.069-0.272 1.192-0.846 1.592-0.695 0.538-0.731 0.131-2.329 1.032 0 0-0.66-0.698-1.699-1.032 0.007 0.015-0.28-1.352-0.846-1.811 1.347-1.040 1.311-1.919 1.526-1.89 0.48 0.044 1.247 0.291 2.666-0.254 0.817 1.578 1.806 1.498 1.526 2.363z"></path>
<path fill="#000" style="fill: var(--color2, #000)" d="M15.426 8.886c-0.631-0.429-0.695-0.858-1.319-0.996-0.767-0.189-1.591-0.073-2.071-0.167-0.186-0.022-1.877 0.48-2.924 1.032-0.989 0.531 1.333-0.96 1.906-1.723 1.698-0.516 1.211-0.538 2.035-0.727 0.745-0.152 0.709-0.109 1.225-0.262 0.523-0.145 0.967-0.873 0.466-1.287-0.308-0.233-1.24 0.124-2.157 0.131-0.415 0.030-2.086 0.808-2.465 1.026-0.946 0.502-1.641 1.214-2.2 1.592-0.781 0.575 0.874-1.469 1.569-2.319 0.201-0.291 0.294-0.349 0.552-0.691 0.402-0.56-0.122-1.389-0.379-1.287-0.316 0.145-0.516 0.77-0.896 0.989-0.136 0.080-0.595 0.764-1.017 1.244-0.316 0.349-0.545 0.509-0.846 0.909-0.516 0.618-0.616 1.105-1.060 1.76-0.272 0.392-0.473 0.494-0.717 0.945-1.326 2.53-0.946 3.672-2.207 5.46-0.387 0.574-0.824 0.698-1.441 1.032-0.574 4.232 1.319 6.595 1.311 6.58 1.598-0.923 2.451-1.309 4.114-1.25 0.624 0.036 0.953 0.305 1.569 0.261 0.573-0.036 0.867-0.254 1.441-0.429 0.882-0.298 1.361-0.546 2.243-0.822 0.631-0.182 1.003-0.189 1.613-0.429 0.523-0.197 0.272-0.015 0.638-0.429 0.466-0.545 0.358-0.96 0.76-1.847 0.595-1.214 0.53-1.374 0.215-1.505 0.201-0.625 0.258-1.025 0.208-1.679-0.065-0.509 0.151-0.865-0.379-1.243-0.724-0.567-2.243-1.847-2.623-1.854-0.588 0.007-2.279-0.058-3.139 0.516-0.193 0.153-0.251 0.276-0.086-0.167 0.036-0.080 2.143-1.745 2.372-1.767 1.503-0.033 1.882-0.095 1.953-0.129 0.149 0.004 1.427 1.581 2.204 1.031 0.287-0.196 0.43-0.371 0.552-0.683-0.108-0.225-0.581-0.56-1.018-0.815zM9.786 13.787c0.688-0.516 0.731-0.109 2.329-0.989 0-0.022 0.659 0.676 1.699 0.989-0.007 0.007 0.279 1.374 0.846 1.847-1.348 1.025-1.312 1.905-1.527 1.89-0.48-0.058-1.247-0.306-2.666 0.219-0.824-1.556-1.806-1.469-1.527-2.371 0.301-1.032 0.265-1.163 0.846-1.585z"></path>
</symbol>
<symbol id="icon-innovation" viewBox="0 0 31 32">
<path fill="#ec3c05" style="fill: var(--color1, #ec3c05)" d="M18.698 2.365l-2.221-1.903c-0.244-0.211-0.608-0.211-0.852 0l-2.293 1.966c-0.209 0.178-0.284 0.467-0.188 0.725s0.34 0.428 0.614 0.428h0.655v1.31c0 0.362 0.293 0.655 0.655 0.655h1.966c0.362 0 0.655-0.293 0.655-0.655v-1.31h0.655c0.004 0.001 0.010 0.001 0.013 0 0.362 0 0.655-0.293 0.655-0.655 0-0.237-0.126-0.444-0.314-0.559z"></path>
<path fill="#ec3c05" style="fill: var(--color1, #ec3c05)" d="M13.417 29.691l2.221 1.903c0.244 0.211 0.608 0.211 0.852 0l2.293-1.966c0.209-0.178 0.283-0.467 0.188-0.724s-0.34-0.428-0.614-0.428h-0.655v-1.31c0-0.362-0.293-0.655-0.655-0.655h-1.966c-0.362 0-0.655 0.293-0.655 0.655v1.31h-0.655c-0.005-0.001-0.010-0.001-0.013 0-0.362 0-0.655 0.293-0.655 0.655 0 0.237 0.126 0.445 0.314 0.559z"></path>
<path fill="#ec3c05" style="fill: var(--color1, #ec3c05)" d="M29.387 18.99l1.903-2.221c0.211-0.244 0.211-0.608 0-0.852l-1.966-2.293c-0.178-0.209-0.467-0.283-0.724-0.188s-0.428 0.34-0.428 0.614v0.655h-1.31c-0.362 0-0.655 0.293-0.655 0.655v1.966c0 0.362 0.293 0.655 0.655 0.655h1.31v0.655c-0.001 0.005-0.001 0.010 0 0.013 0 0.362 0.293 0.655 0.655 0.655 0.237 0 0.445-0.125 0.559-0.314z"></path>
<path fill="#ec3c05" style="fill: var(--color1, #ec3c05)" d="M2.061 13.708l-1.903 2.221c-0.211 0.244-0.211 0.608 0 0.852l1.966 2.293c0.178 0.209 0.467 0.283 0.724 0.188s0.428-0.34 0.428-0.614v-0.655h1.31c0.362 0 0.655-0.293 0.655-0.655v-1.966c0-0.362-0.293-0.655-0.655-0.655h-1.31v-0.655c0.001-0.005 0.001-0.010 0-0.013 0-0.362-0.293-0.655-0.655-0.655-0.237-0-0.444 0.126-0.559 0.314z"></path>
<path fill="#000" style="fill: var(--color2, #000)" d="M21.601 25.042l-1.276-5.104 1.286-7.068c0.065-0.356-0.171-0.697-0.528-0.761-0.355-0.069-0.697 0.171-0.761 0.527l-1.213 6.668h-4.039c-0.362 0-0.655 0.293-0.655 0.655s0.293 0.655 0.655 0.655h0.471l-1.107 4.428c-0.088 0.35 0.126 0.706 0.477 0.794 0.053 0.013 0.107 0.019 0.159 0.019 0.294 0 0.56-0.198 0.635-0.497l1.186-4.745h2.254l1.186 4.745c0.074 0.298 0.342 0.497 0.635 0.497 0.052 0 0.106-0.007 0.159-0.019 0.351-0.087 0.565-0.443 0.476-0.794z"></path>
<path fill="#000" style="fill: var(--color2, #000)" d="M18.561 18.648l0.476-2.621h-12.486v9.828h1.966v-7.207h10.044z"></path>
<path fill="#000" style="fill: var(--color2, #000)" d="M21.701 16.028l-0.477 2.621h1.707v7.207h1.966v-9.828h-3.195z"></path>
<path fill="#000" style="fill: var(--color2, #000)" d="M15.069 12.752v-5.897h-7.207v5.897h2.621v0.655c0 0.596-0.299 0.655-1.31 0.655-1.346 0-1.31 0.714-1.31 1.31h7.207c0-0.596 0-1.31-1.31-1.31-1.011 0-1.31-0.059-1.31-0.655v-0.655h2.621zM9.172 11.442v-3.276h4.586v3.276h-4.586z"></path>
</symbol>
<symbol id="icon-phone" viewBox="0 0 27 32">
<path fill="#000" style="fill: var(--color2, #000)" d="M18.548 6.492v1.874c0 0.524 0.416 0.951 0.928 0.951h5.434c0.516 0 0.929-0.426 0.929-0.951v-1.874h-7.291z"></path>
<path fill="#000" style="fill: var(--color2, #000)" d="M25.832 12.563h-2.781c-0.416 0-0.744 0.34-0.744 0.758v2.083c0 0.423 0.328 0.759 0.744 0.759h2.781c0.416 0 0.744-0.336 0.744-0.759v-2.083c0-0.419-0.328-0.758-0.744-0.758z"></path>
<path fill="#ec3c05" style="fill: var(--color1, #ec3c05)" d="M25.832 23.319h-2.781c-0.416 0-0.744 0.336-0.744 0.762v2.079c0 0.419 0.328 0.763 0.744 0.763h2.781c0.416 0 0.744-0.344 0.744-0.763v-2.079c0-0.426-0.328-0.762-0.744-0.762z"></path>
<path fill="#000" style="fill: var(--color2, #000)" d="M22.87 28.404h-19.312c-0.408 0-0.744 0.336-0.744 0.754v2.087c0 0.418 0.336 0.755 0.744 0.755h19.312c0.408 0 0.736-0.337 0.736-0.755v-2.087c0-0.418-0.328-0.754-0.736-0.754z"></path>
<path fill="#ec3c05" style="fill: var(--color1, #ec3c05)" d="M4.269 26.162v-2.083c0-0.422-0.336-0.758-0.744-0.758h-2.789c-0.404 0-0.732 0.336-0.732 0.758v2.083c0 0.418 0.328 0.763 0.732 0.763h2.789c0.408 0 0.745-0.345 0.745-0.763z"></path>
<path fill="#000" style="fill: var(--color2, #000)" d="M0.736 16.162h2.789c0.408 0 0.744-0.336 0.744-0.758v-2.083c0-0.419-0.336-0.759-0.744-0.759h-2.789c-0.408 0-0.736 0.34-0.736 0.759v2.083c0 0.422 0.328 0.758 0.736 0.758z"></path>
<path fill="#000" style="fill: var(--color2, #000)" d="M1.362 9.32h5.43c0.516 0 0.932-0.427 0.932-0.951v-1.873h-7.291v1.873c0 0.524 0.412 0.951 0.929 0.951z"></path>
<path fill="#ec3c05" style="fill: var(--color1, #ec3c05)" d="M20.259 12.563h-2.789c-0.408 0-0.736 0.34-0.736 0.758v2.083c0 0.423 0.328 0.759 0.736 0.759h2.789c0.408 0 0.737-0.336 0.737-0.759v-2.083c0-0.419-0.329-0.758-0.737-0.758z"></path>
<path fill="#ec3c05" style="fill: var(--color1, #ec3c05)" d="M23.816 20.805v-2.083c0-0.414-0.336-0.759-0.744-0.759h-2.789c-0.404 0-0.732 0.344-0.732 0.759v2.083c0 0.426 0.328 0.763 0.732 0.763h2.789c0.408 0 0.744-0.336 0.744-0.763z"></path>
<path fill="#000" style="fill: var(--color2, #000)" d="M17.469 26.923h2.789c0.408 0 0.737-0.345 0.737-0.763v-2.079c0-0.427-0.328-0.763-0.737-0.763h-2.789c-0.408 0-0.736 0.336-0.736 0.763v2.079c0 0.418 0.328 0.763 0.736 0.763z"></path>
<path fill="#000" style="fill: var(--color2, #000)" d="M18.235 20.805v-2.083c0-0.414-0.328-0.759-0.736-0.759h-2.789c-0.404 0-0.74 0.344-0.74 0.759v2.083c0 0.426 0.336 0.763 0.74 0.763h2.789c0.409 0 0.736-0.336 0.736-0.763z"></path>
<path fill="#ec3c05" style="fill: var(--color1, #ec3c05)" d="M11.897 26.923h2.781c0.408 0 0.744-0.345 0.744-0.763v-2.079c0-0.427-0.336-0.763-0.744-0.763h-2.781c-0.416 0-0.744 0.336-0.744 0.763v2.079c0 0.418 0.328 0.763 0.744 0.763z"></path>
<path fill="#000" style="fill: var(--color2, #000)" d="M14.679 16.162c0.408 0 0.744-0.336 0.744-0.758v-2.083c0-0.419-0.336-0.759-0.744-0.759h-2.781c-0.416 0-0.745 0.34-0.745 0.759v2.083c0 0.422 0.328 0.758 0.745 0.758h2.781z"></path>
<path fill="#ec3c05" style="fill: var(--color1, #ec3c05)" d="M12.663 20.805v-2.083c0-0.414-0.336-0.759-0.744-0.759h-2.789c-0.404 0-0.733 0.344-0.733 0.759v2.083c0 0.426 0.328 0.763 0.733 0.763h2.789c0.408 0 0.744-0.336 0.744-0.763z"></path>
<path fill="#000" style="fill: var(--color2, #000)" d="M6.356 26.923h2.789c0.408 0 0.744-0.345 0.744-0.763v-2.079c0-0.427-0.336-0.763-0.744-0.763h-2.789c-0.408 0-0.737 0.336-0.737 0.763v2.079c0 0.418 0.328 0.763 0.737 0.763z"></path>
<path fill="#ec3c05" style="fill: var(--color1, #ec3c05)" d="M9.107 16.162c0.408 0 0.736-0.336 0.736-0.758v-2.083c0-0.419-0.328-0.759-0.736-0.759h-2.789c-0.409 0-0.737 0.34-0.737 0.759v2.083c0 0.422 0.328 0.758 0.737 0.758h2.789z"></path>
<path fill="#000" style="fill: var(--color2, #000)" d="M2.815 18.723v2.083c0 0.422 0.336 0.758 0.744 0.758h2.789c0.404 0 0.733-0.337 0.733-0.758v-2.083c0-0.419-0.328-0.762-0.733-0.762h-2.789c-0.408 0-0.744 0.344-0.744 0.762z"></path>
<path fill="#000" style="fill: var(--color2, #000)" d="M7.724 5.748c0-0.541 0.444-1.472 5.418-1.488 4.962-0.016 5.406 0.947 5.406 1.488v0.156h7.291v-0.197c0-0.972-1.709-5.707-12.697-5.707-11 0-12.709 4.735-12.709 5.707v0.197h7.291v-0.156z"></path>
</symbol>
<symbol id="icon-planning" viewBox="0 0 30 32">
<path fill="#ec3c05" style="fill: var(--color1, #ec3c05)" d="M14.968 11.001c2.867 0 5.184-2.356 5.184-5.252-0-2.899-2.317-5.243-5.184-5.243s-5.184 2.344-5.184 5.243c-0 2.896 2.317 5.252 5.184 5.252z"></path>
<path fill="#000" style="fill: var(--color2, #000)" d="M24.202 24.658c1.429-1.289 2.276-2.891 2.276-4.625 0-4.263-5.114-7.72-11.422-7.72-0.030 0-0.059 0.001-0.088 0.002s-0.059-0.002-0.089-0.002c-6.308 0-11.422 3.456-11.422 7.72 0 1.735 0.847 3.336 2.276 4.625-3.486 0.858-5.733 2.202-5.733 3.713 0 2.592 3.717 4.621 14.879 3.092 0.030 0.005 0.059 0.008 0.089 0.013 0.030-0.005 0.058-0.009 0.088-0.013 11.163 1.528 14.879-0.5 14.879-3.092-0-1.511-2.247-2.854-5.734-3.713zM23.094 20.899c-0.039-0.002-0.079-0.006-0.118-0.006-1.124 0-2.035 0.911-2.035 2.035s0.911 2.034 2.035 2.034c0.039 0 0.079-0.004 0.118-0.006v2.168l-8.126 2.831-8.125-2.831v-2.168c0.039 0.002 0.078 0.006 0.118 0.006 1.124 0 2.035-0.911 2.035-2.034s-0.911-2.035-2.035-2.035c-0.040 0-0.079 0.004-0.118 0.006v-4.603l8.125 2.647 8.126-2.647v4.603z"></path>
</symbol>
<symbol id="icon-envelope" viewBox="0 0 43 32">
<path  d="M38.667 0h-34.667c-2.206 0-4 1.794-4 4v24c0 2.206 1.794 4 4 4h34.667c2.206 0 4-1.794 4-4v-24c0-2.206-1.794-4-4-4zM38.667 2.667c0.181 0 0.353 0.038 0.511 0.103l-17.844 15.466-17.844-15.466c0.158-0.066 0.33-0.103 0.511-0.103h34.667zM38.667 29.333h-34.667c-0.736 0-1.333-0.598-1.333-1.333v-22.413l17.793 15.421c0.251 0.217 0.563 0.326 0.874 0.326s0.622-0.108 0.874-0.326l17.793-15.421v22.413c0 0.736-0.598 1.333-1.333 1.333z"></path>
</symbol>
<symbol id="icon-smartphone" viewBox="0 0 20 32">
<path  d="M17 0h-14c-1.654 0-3 1.346-3 3v26c0 1.654 1.346 3 3 3h14c1.654 0 3-1.346 3-3v-26c0-1.654-1.346-3-3-3zM3 2h14c0.552 0 1 0.448 1 1v21h-16v-21c0-0.552 0.448-1 1-1zM17 30h-14c-0.552 0-1-0.448-1-1v-3h16v3c0 0.552-0.448 1-1 1z"></path>
<path  d="M4.707 27.478c0.391 0.365 0.391 0.956 0 1.321s-1.024 0.365-1.414 0c-0.391-0.365-0.391-0.956 0-1.321s1.024-0.365 1.414 0z"></path>
</symbol>
<symbol id="rails" viewBox="0 0 83 32">
<path  d="M72.642 27.168v4.046h6.892c1.411 0 3.837-1.096 3.921-4.158v-1.565c0-2.616-2.024-4.158-3.921-4.158h-3.436v-1.878h6.809v-4.070h-6.535c-1.685 0-3.942 1.476-3.942 4.226v1.409c0 2.75 2.236 4.158 3.942 4.158 4.743 0.023-1.137 0 3.245 0v1.967l-6.976 0.023zM35.71 26.184c0 0 3.689-0.337 3.689-5.39s-4.469-5.523-4.469-5.523h-8.053v15.942h4.046v-3.845l3.498 3.845h5.987l-4.698-5.030zM34.15 22.918h-3.224v-3.644h3.245c0 0 0.905 0.357 0.905 1.81s-0.929 1.834-0.929 1.834h0.002zM49.39 15.384h-4.111c-2.93 0-3.921 2.817-3.921 4.158v11.671h4.111v-2.794h3.858v2.794h3.983v-11.671c0-3.399-2.909-4.158-3.921-4.158zM49.328 23.902h-3.879v-3.869c0 0 0-0.871 1.286-0.871h1.411c1.137 0 1.158 0.871 1.158 0.871v3.869h0.023zM55.19 15.384h4.278v15.832h-4.278v-15.832zM65.476 27.123v-11.739h-4.257v15.832h10.012v-4.093h-5.755zM1.477 31.214h16.654c0 0-3.182-15.407 7.357-21.644 2.298-1.184 9.613-5.611 21.587 3.78 0.378-0.337 0.738-0.603 0.738-0.603s-10.962-11.606-23.168-10.307c-6.133 0.582-13.68 6.506-18.107 14.332s-5.058 14.444-5.058 14.444l-0.003-0.003zM1.477 31.214h16.654c0 0-3.182-15.407 7.357-21.644 2.298-1.184 9.613-5.611 21.587 3.78 0.378-0.337 0.738-0.603 0.738-0.603s-10.962-11.606-23.168-10.307c-6.133 0.582-13.68 6.506-18.107 14.332s-5.058 14.444-5.058 14.444l-0.003-0.003zM1.477 31.214h16.654c0 0-3.182-15.407 7.357-21.644 2.298-1.184 9.613-5.611 21.587 3.78 0.378-0.337 0.738-0.603 0.738-0.603s-10.962-11.606-23.168-10.307c-6.157 0.582-13.703 6.506-18.128 14.332s-5.037 14.444-5.037 14.444l-0.003-0.003zM36.175 3.689l0.083-1.497c-0.19-0.112-0.717-0.381-2.045-0.783l-0.083 1.477c0.697 0.245 1.37 0.514 2.045 0.806v-0.003zM34.171 8.43l-0.083 1.409c0.697 0.024 1.39 0.112 2.087 0.269l0.083-1.385c-0.717-0.157-1.411-0.245-2.087-0.29v-0.003zM26.371 1.454h0.211l-0.423-1.364c-0.655 0-1.328 0.044-2.024 0.133l0.402 1.32c0.61-0.068 1.223-0.089 1.834-0.089zM27.384 9.682l0.485 1.542c0.611-0.313 1.224-0.582 1.834-0.783l-0.464-1.477c-0.717 0.224-1.328 0.47-1.855 0.715v0.003zM17.812 3.802l-0.95-1.542c-0.527 0.29-1.075 0.603-1.643 0.963l0.97 1.565c0.548-0.357 1.075-0.694 1.623-0.984v-0.003zM22.135 13.863l1.012 1.61c0.357-0.558 0.78-1.072 1.244-1.589l-0.95-1.521c-0.485 0.47-0.929 0.983-1.307 1.497v0.003zM19.077 21.063l1.709 1.432c0.083-0.871 0.232-1.745 0.443-2.616l-1.518-1.276c-0.274 0.827-0.464 1.654-0.631 2.46h-0.003zM9.845 10.441l-1.497-1.385c-0.548 0.558-1.075 1.119-1.56 1.677l1.623 1.477c0.443-0.603 0.929-1.208 1.432-1.766l0.003-0.003zM3.477 20.437l-2.424-0.939c-0.399 0.963-0.843 2.079-1.054 2.684l2.423 0.939c0.274-0.759 0.717-1.855 1.054-2.684zM18.762 26.743c0.042 1.184 0.149 2.147 0.253 2.817l2.53 0.963c-0.19-0.871-0.378-1.855-0.506-2.906l-2.277-0.874z"></path>
</symbol>
<symbol id="gpay" viewBox="0 0 80 32">
<path  d="M80 7.999l-10.447 23.333h-3.227l3.877-8.167-6.87-15.168h3.4l4.967 11.632h0.067l4.828-11.633 3.405 0.003zM36.61 15.219v9.447h-3.277v-23.332h8.69c0.063-0.002 0.133-0.002 0.205-0.002 2.078 0 3.975 0.765 5.428 2.030l-0.010-0.007c1.527 1.257 2.382 3.050 2.352 4.928 0 0.023 0 0.050 0 0.075 0 1.97-0.915 3.725-2.342 4.865l-0.013 0.010c-1.517 1.328-3.393 1.988-5.623 1.988h-5.41zM36.602 4.207v8.148h5.493c1.217 0.033 2.392-0.408 3.242-1.207 0.84-0.75 1.318-1.777 1.318-2.852 0-1.072-0.478-2.1-1.318-2.85-0.802-0.768-1.892-1.24-3.092-1.24-0.053 0-0.108 0-0.16 0.003h-5.483zM56.572 7.999c2.090 0 3.74 0.58 4.95 1.74 1.207 1.16 1.81 2.752 1.81 4.773v9.643h-2.703v-2.173h-0.123c-1.17 1.79-2.727 2.683-4.667 2.683-1.66 0-3.047-0.51-4.167-1.533-1.030-0.915-1.675-2.245-1.675-3.723 0-0.037 0-0.077 0.003-0.115v0.005c0-1.617 0.59-2.903 1.767-3.86s2.75-1.433 4.718-1.437c1.677 0 3.060 0.32 4.142 0.957v-0.67c0-0.010 0-0.023 0-0.035 0-1.020-0.45-1.938-1.162-2.56l-0.005-0.002c-0.7-0.665-1.65-1.072-2.695-1.072-0.013 0-0.023 0-0.035 0h0.003c-1.58 0-2.83 0.693-3.747 2.078l-2.49-1.627c1.367-2.043 3.392-3.068 6.077-3.068v-0.003zM52.917 19.367c0 0.008 0 0.015 0 0.023 0 0.77 0.368 1.455 0.935 1.89l0.005 0.005c0.623 0.51 1.4 0.78 2.198 0.767 1.19-0.003 2.332-0.5 3.177-1.373 0.865-0.8 1.407-1.943 1.407-3.21 0-0.005 0-0.010 0-0.013-0.883-0.732-2.11-1.097-3.687-1.097-1.15 0-2.107 0.29-2.873 0.867-0.773 0.58-1.16 1.29-1.16 2.143l-0.003-0.003zM13.602 1.334c0.050 0 0.107 0 0.167 0 3.447 0 6.587 1.32 8.943 3.483l-0.010-0.008-3.88 3.808c-1.33-1.24-3.12-2-5.087-2-0.048 0-0.093 0-0.14 0.003h0.007c-3.527 0.022-6.518 2.29-7.62 5.442l-0.018 0.057c-0.27 0.76-0.428 1.64-0.428 2.553s0.157 1.793 0.445 2.607l-0.018-0.055c1.117 3.21 4.11 5.477 7.635 5.5h0.003c1.837 0 3.41-0.46 4.633-1.27 1.43-0.933 2.41-2.4 2.712-4.058h-7.347v-5.132h12.83c0.157 0.898 0.233 1.8 0.233 2.71 0 4.057-1.48 7.49-4.047 9.81-2.253 2.040-5.348 3.22-9.018 3.22-0.017 0-0.035 0-0.055 0-5.232 0-9.775-2.948-12.063-7.273l-0.035-0.075c-0.912-1.74-1.448-3.8-1.448-5.987s0.535-4.248 1.482-6.060l-0.035 0.072c2.322-4.4 6.865-7.348 12.098-7.348 0.020 0 0.040 0 0.060 0v0z"></path>
</symbol>
<symbol id="ps" viewBox="0 0 40 32">
<path  d="M14.975 0.326v29.246l6.525 2.101v-24.529c0-1.15 0.506-1.919 1.324-1.651 1.060 0.301 1.266 1.356 1.266 2.509v9.794c4.069 1.989 7.27-0.004 7.27-5.255 0-5.395-1.876-7.791-7.396-9.711-2.179-0.746-6.214-1.976-8.985-2.504h-0.004zM22.735 27.396l10.494-3.791c1.191-0.43 1.376-1.041 0.41-1.364-0.976-0.32-2.729-0.231-3.929 0.205l-7.009 2.499v-3.975l0.4-0.141c0 0 2.001-0.7 4.855-1.025 2.826-0.3 6.309 0.049 9.061 1.101 3.080 1.001 3.401 2.454 2.626 3.454s-2.704 1.726-2.704 1.726l-14.24 5.179v-3.829l0.035-0.039zM3.014 27c-3.166-0.909-3.69-2.78-2.254-3.869 1.335-0.975 3.599-1.751 3.599-1.751l9.36-3.355v3.855l-6.709 2.454c-1.175 0.451-1.375 1.054-0.399 1.376 0.976 0.325 2.729 0.25 3.905-0.2l3.23-1.176v3.456c-0.201 0.049-0.426 0.074-0.651 0.121-3.23 0.551-6.659 0.326-10.061-0.799l-0.020-0.113z"></path>
</symbol>
<symbol id="pay" viewBox="0 0 74 32">
<path  d="M13.502 4.565c-0.868 1.036-2.252 1.853-3.637 1.735-0.173-1.401 0.505-2.887 1.299-3.805 0.868-1.064 2.382-1.818 3.607-1.881 0.145 1.458-0.418 2.887-1.267 3.951h-0.002zM14.753 6.578c-2.003-0.118-3.722 1.154-4.671 1.154-0.969 0-2.425-1.096-4.013-1.064-2.061 0.030-3.978 1.209-5.031 3.092-2.167 3.759-0.563 9.332 1.525 12.395 1.025 1.516 2.252 3.178 3.868 3.12 1.525-0.058 2.132-1.006 3.978-1.006 1.862 0 2.393 1.006 4.013 0.978 1.671-0.030 2.723-1.516 3.748-3.035 1.17-1.724 1.645-3.397 1.673-3.487-0.030-0.030-3.231-1.267-3.261-5.001-0.028-3.122 2.522-4.608 2.64-4.696-1.44-2.16-3.692-2.393-4.47-2.453v0.002zM26.338 2.35v22.735h3.492v-7.772h4.83c4.412 0 7.514-3.065 7.514-7.495 0-4.433-3.044-7.468-7.396-7.468h-8.439zM29.831 5.327h4.025c3.028 0 4.756 1.632 4.756 4.505s-1.728 4.523-4.772 4.523h-4.013l0.005-9.028zM48.551 25.258c2.195 0 4.228-1.119 5.151-2.901h0.072v2.73h3.231v-11.317c0-3.279-2.596-5.398-6.591-5.398-3.708 0-6.445 2.144-6.547 5.088h3.145c0.258-1.401 1.542-2.317 3.302-2.317 2.135 0 3.332 1.006 3.332 2.859v1.253l-4.357 0.265c-4.052 0.247-6.247 1.922-6.247 4.839 0 2.945 2.264 4.899 5.511 4.899l-0.002-0.002zM49.488 22.563c-1.862 0-3.046-0.905-3.046-2.289 0-1.431 1.142-2.262 3.321-2.393l3.877-0.247v1.283c0 2.13-1.784 3.646-4.152 3.646zM61.318 31.27c3.404 0 5.003-1.313 6.399-5.296l6.129-17.384h-3.547l-4.11 13.431h-0.072l-4.11-13.431h-3.648l5.91 16.553-0.316 1.006c-0.533 1.705-1.396 2.361-2.942 2.361-0.275 0-0.805-0.030-1.025-0.058v2.73c0.203 0.058 1.068 0.085 1.332 0.090v-0.002z"></path>
</symbol>
<symbol id="npm" viewBox="0 0 80 32">
<path  d="M0 0.447v26.668h22.22v4.44h17.78v-4.44h40v-26.668h-80zM22.22 22.66h-4.44v-13.332h-4.45v13.332h-8.88v-17.77h17.77v17.77zM35.553 22.66v4.453h-8.883v-22.222h17.78v17.772l-8.897-0.003zM75.557 22.66h-4.432v-13.332h-4.453v13.332h-4.45v-13.332h-4.433v13.332h-8.903v-17.77h26.673l-0.003 17.77zM35.55 9.332h4.45v8.89h-4.45v-8.89z"></path>
</symbol>
<symbol id="uber_eats" viewBox="0 0 40 32">
<path  d="M-0 0.584v8.484c0 3.2 2.234 5.316 5.134 5.316 1.416 0 2.684-0.55 3.584-1.5v1.266h2.016v-13.566h-2.034v8.366c0 2.15-1.45 3.6-3.334 3.6-1.9 0-3.334-1.416-3.334-3.6v-8.366h-2.033zM12.25 0.584v13.566h1.916v-1.25c0.896 0.916 2.145 1.484 3.526 1.484 0.009 0 0.016 0 0.025 0h-0.001c0.010 0 0.021 0 0.034 0 2.844 0 5.15-2.306 5.15-5.15 0-0.006 0-0.011 0-0.017v0.001c0-0.005 0-0.011 0-0.016 0-2.844-2.306-5.15-5.15-5.15-0.011 0-0.024 0-0.035 0h0.001c-1.384 0-2.616 0.566-3.55 1.466v-4.934h-1.916zM28.766 4.066c-2.934 0-5.084 2.35-5.084 5.134 0 2.95 2.284 5.134 5.25 5.134 1.8 0 3.284-0.766 4.266-2.084l-1.416-1.050c-0.734 0.984-1.7 1.466-2.85 1.466-1.666 0-3-1.216-3.266-2.816h8.034v-0.65c0-2.934-2.084-5.134-4.934-5.134zM39.084 4.184c-1.084 0-1.866 0.5-2.35 1.3v-1.216h-1.95v9.884h1.966v-5.65c0-1.5 0.934-2.5 2.2-2.5h0.816v-1.816h-0.684l0.001-0.001zM28.716 5.766c1.466 0 2.684 1.016 3.016 2.534h-6.034c0.35-1.516 1.566-2.534 3.016-2.534h0.001zM17.584 5.8c1.85 0 3.384 1.5 3.384 3.416 0 1.9-1.534 3.45-3.384 3.45-0.005 0-0.011 0-0.017 0-1.878 0-3.4-1.523-3.4-3.4 0-0.018 0-0.035 0-0.053v0.003c0-1.916 1.534-3.416 3.416-3.416h0.001zM-0 17.6v13.566h9.534v-2.316h-6.95v-3.366h6.766v-2.25h-6.766v-3.316h6.95v-2.316l-9.534-0.001zM24.266 18.3v2.85h-1.934v2.266h1.934v5.334c0 1.35 0.95 2.416 2.666 2.416h2.734v-2.266h-1.9c-0.584 0-0.95-0.266-0.95-0.8v-4.684h2.85v-2.266h-2.85v-2.85h-2.55zM15.534 20.9c-2.984 0-5.334 2.334-5.334 5.266 0 2.916 2.35 5.25 5.334 5.25 1.2 0 2.316-0.416 3.2-1.15v0.9h2.534v-10.016h-2.534v0.9c-0.85-0.715-1.957-1.15-3.166-1.15-0.011 0-0.024 0-0.035 0h0.001zM35.066 20.9c-2.65 0-4.5 1.084-4.5 3.2 0 1.45 1.016 2.4 3.216 2.866l2.416 0.566c0.95 0.184 1.2 0.434 1.2 0.834 0 0.616-0.734 1.016-1.884 1.016-1.45 0-2.284-0.334-2.616-1.434h-2.55c0.366 2.084 1.916 3.466 5.084 3.466 2.9 0 4.566-1.384 4.566-3.316 0-1.366-0.966-2.384-3.016-2.816l-2.15-0.45c-1.25-0.234-1.65-0.5-1.65-0.934 0-0.6 0.6-0.966 1.716-0.966 1.2 0 2.084 0.334 2.334 1.4h2.534c-0.134-2.050-1.65-3.434-4.7-3.434v0.001zM15.75 23.1c1.684 0 3.034 1.35 3.034 3.066s-1.35 3.050-3.034 3.050c-0.005 0-0.011 0-0.016 0-1.675 0-3.034-1.358-3.034-3.034 0-0.006 0-0.011 0-0.017v0.001c0-1.716 1.384-3.066 3.050-3.066z"></path>
</symbol>
<symbol id="icon-facebook" viewBox="0 0 32 32">
<path  d="M21.329 5.313h2.921v-5.088c-0.504-0.069-2.237-0.225-4.256-0.225-4.212 0-7.097 2.649-7.097 7.519v4.481h-4.648v5.688h4.648v14.312h5.699v-14.311h4.46l0.708-5.688h-5.169v-3.919c0.001-1.644 0.444-2.769 2.735-2.769z"></path>
</symbol>
<symbol id="icon-instagram" viewBox="0 0 32 32">
<path  d="M31.969 9.408c-0.075-1.7-0.35-2.869-0.744-3.882-0.406-1.075-1.032-2.038-1.851-2.838-0.8-0.813-1.769-1.444-2.832-1.844-1.019-0.394-2.182-0.669-3.882-0.744-1.713-0.081-2.257-0.1-6.601-0.1s-4.888 0.019-6.595 0.094c-1.7 0.075-2.869 0.35-3.882 0.744-1.075 0.406-2.038 1.031-2.838 1.85-0.813 0.8-1.444 1.769-1.844 2.832-0.394 1.019-0.669 2.182-0.744 3.882-0.081 1.713-0.1 2.257-0.1 6.601s0.019 4.888 0.094 6.595c0.075 1.7 0.35 2.869 0.744 3.882 0.406 1.075 1.038 2.038 1.85 2.838 0.8 0.813 1.769 1.444 2.832 1.844 1.019 0.394 2.182 0.669 3.882 0.744 1.706 0.075 2.25 0.094 6.595 0.094s4.888-0.019 6.595-0.094c1.7-0.075 2.869-0.35 3.882-0.744 2.151-0.832 3.851-2.532 4.682-4.682 0.394-1.019 0.669-2.182 0.744-3.882 0.075-1.707 0.094-2.251 0.094-6.595s-0.006-4.888-0.081-6.595zM29.087 22.473c-0.069 1.563-0.331 2.407-0.55 2.969-0.538 1.394-1.644 2.5-3.038 3.038-0.563 0.219-1.413 0.481-2.969 0.55-1.688 0.075-2.194 0.094-6.464 0.094s-4.782-0.019-6.464-0.094c-1.563-0.069-2.407-0.331-2.969-0.55-0.694-0.256-1.325-0.663-1.838-1.194-0.531-0.519-0.938-1.144-1.194-1.838-0.219-0.563-0.481-1.413-0.55-2.969-0.075-1.688-0.094-2.194-0.094-6.464s0.019-4.782 0.094-6.464c0.069-1.563 0.331-2.407 0.55-2.969 0.256-0.694 0.663-1.325 1.2-1.838 0.519-0.531 1.144-0.938 1.838-1.194 0.563-0.219 1.413-0.481 2.969-0.55 1.688-0.075 2.194-0.094 6.464-0.094 4.276 0 4.782 0.019 6.464 0.094 1.563 0.069 2.407 0.331 2.969 0.55 0.694 0.256 1.325 0.662 1.838 1.194 0.531 0.519 0.938 1.144 1.194 1.838 0.219 0.563 0.481 1.413 0.55 2.969 0.075 1.688 0.094 2.194 0.094 6.464s-0.019 4.77-0.094 6.458z"></path>
<path  d="M16.059 7.783c-4.538 0-8.22 3.682-8.22 8.22s3.682 8.22 8.22 8.22c4.539 0 8.22-3.682 8.22-8.22s-3.682-8.22-8.22-8.22zM16.059 21.335c-2.944 0-5.332-2.388-5.332-5.332s2.388-5.332 5.332-5.332c2.944 0 5.332 2.388 5.332 5.332s-2.388 5.332-5.332 5.332z"></path>
<path  d="M26.524 7.458c0 1.060-0.859 1.919-1.919 1.919s-1.919-0.859-1.919-1.919c0-1.060 0.859-1.919 1.919-1.919s1.919 0.859 1.919 1.919z"></path>
</symbol>
<symbol id="icon-linkedin-1" viewBox="0 0 32 32">
<path  d="M31.992 32v-0.001h0.008v-11.736c0-5.741-1.236-10.164-7.948-10.164-3.227 0-5.392 1.771-6.276 3.449h-0.093v-2.913h-6.364v21.364h6.627v-10.579c0-2.785 0.528-5.479 3.977-5.479 3.399 0 3.449 3.179 3.449 5.657v10.401h6.62z"></path>
<path  d="M0.528 10.636h6.635v21.364h-6.635v-21.364z"></path>
<path  d="M3.843 0c-2.121 0-3.843 1.721-3.843 3.843s1.721 3.879 3.843 3.879c2.121 0 3.843-1.757 3.843-3.879-0.001-2.121-1.723-3.843-3.843-3.843v0z"></path>
</symbol>
<symbol id="icon-twitter" viewBox="0 0 36 32">
<path  d="M35.556 4.976c-1.322 0.58-2.731 0.964-4.2 1.151 1.511-0.902 2.665-2.32 3.207-4.029-1.409 0.84-2.964 1.433-4.622 1.764-1.338-1.424-3.244-2.307-5.324-2.307-4.035 0-7.284 3.276-7.284 7.291 0 0.578 0.049 1.133 0.169 1.662-6.060-0.296-11.422-3.2-15.024-7.624-0.629 1.091-0.998 2.34-0.998 3.684 0 2.524 1.3 4.762 3.238 6.058-1.171-0.022-2.32-0.362-3.293-0.898 0 0.022 0 0.051 0 0.080 0 3.542 2.527 6.484 5.84 7.162-0.593 0.162-1.24 0.24-1.911 0.24-0.467 0-0.938-0.026-1.38-0.124 0.944 2.887 3.624 5.009 6.811 5.078-2.48 1.94-5.629 3.109-9.038 3.109-0.598 0-1.171-0.026-1.744-0.1 3.229 2.082 7.056 3.271 11.182 3.271 13.413 0 20.747-11.111 20.747-20.742 0-0.322-0.011-0.633-0.027-0.942 1.447-1.027 2.662-2.309 3.653-3.784z"></path>
</symbol>
<symbol id="icon-close_btn" viewBox="0 0 32 32">
<path d="M19.525 16l10.75-10.725c0.471-0.471 0.735-1.109 0.735-1.775s-0.264-1.304-0.735-1.775c-0.471-0.471-1.109-0.735-1.775-0.735s-1.304 0.264-1.775 0.735l-10.725 10.75-10.725-10.75c-0.471-0.471-1.109-0.735-1.775-0.735s-1.304 0.264-1.775 0.735c-0.471 0.471-0.735 1.109-0.735 1.775s0.264 1.304 0.735 1.775l10.75 10.725-10.75 10.725c-0.234 0.232-0.42 0.509-0.547 0.814s-0.192 0.631-0.192 0.961 0.065 0.657 0.192 0.961c0.127 0.305 0.313 0.581 0.547 0.814 0.232 0.234 0.509 0.42 0.814 0.547s0.631 0.192 0.961 0.192c0.33 0 0.657-0.065 0.961-0.192s0.581-0.313 0.814-0.547l10.725-10.75 10.725 10.75c0.232 0.234 0.509 0.42 0.814 0.547s0.631 0.192 0.961 0.192c0.33 0 0.657-0.065 0.961-0.192s0.581-0.313 0.814-0.547c0.234-0.232 0.42-0.509 0.547-0.814s0.192-0.631 0.192-0.961-0.065-0.657-0.192-0.961c-0.127-0.305-0.313-0.581-0.547-0.814l-10.75-10.725z"></path>
</symbol>
<symbol id="leaf" viewBox="0 0 24 24" >
<path d="M15.357 21.3324C15.1052 21.4179 14.7701 21.4179 14.5183 21.505C14.7701 21.4179 15.1052 21.3324 15.357 21.3324Z" />
<path d="M22.3226 14.6232C22.2392 14.9667 22.1542 15.2247 22.0708 15.4828C22.1542 15.2247 22.2392 14.8812 22.3226 14.6232Z" />
<path d="M21.9876 15.5698C21.8193 15.9133 21.6525 16.2585 21.4841 16.602C21.6509 16.344 21.8193 15.9988 21.9876 15.5698Z" />
<path d="M22.5744 13.5055C22.5744 13.7635 22.491 14.0216 22.406 14.2796C22.491 14.0216 22.491 13.7635 22.5744 13.5055Z" />
<path d="M22.6579 12.0426C22.6579 12.3861 22.6579 12.8167 22.5745 13.1603C22.6579 12.8167 22.6579 12.3861 22.6579 12.0426Z"/>
<path d="M14.435 21.4178C14.0983 21.5049 13.7631 21.5049 13.428 21.5049C13.7631 21.5049 14.0983 21.5049 14.435 21.4178Z"/>
<path d="M22.4061 14.2797C22.4061 14.3651 22.3228 14.4522 22.3228 14.5377C22.3228 14.4506 22.3228 14.3651 22.4061 14.2797Z"/>
<path d="M22.5744 13.1603C22.5744 13.2458 22.5744 13.3328 22.491 13.5038C22.5744 13.3328 22.5744 13.2474 22.5744 13.1603Z"/>
<path d="M15.4419 21.2468C15.3569 21.2468 15.3569 21.3323 15.4419 21.2468C15.3569 21.2468 15.3569 21.3323 15.4419 21.2468Z"/>
<path d="M21.9874 15.4828C21.9874 15.5683 21.9874 15.5683 21.9041 15.6554C21.9874 15.5699 21.9874 15.4828 21.9874 15.4828Z"/>
<path d="M20.477 18.1503C17.7911 14.8812 14.0148 11.2685 11.3305 8.77517C11.1621 8.6026 11.0787 8.43165 11.0787 8.17361C11.0787 7.65752 11.4139 7.31401 11.9174 7.31401C12.0857 7.31401 12.3375 7.39948 12.5043 7.48658H12.5877C16.364 11.0138 19.385 14.0232 21.5674 16.6037C21.7358 16.2602 21.9026 15.915 22.0709 15.5715C22.0709 15.5715 22.0709 15.486 22.1543 15.3989C22.2377 15.1409 22.3227 14.7974 22.4061 14.5393C22.4061 14.4538 22.4895 14.3667 22.4895 14.2813C22.5729 14.0232 22.5729 13.7652 22.6578 13.5071C22.6578 13.4217 22.6578 13.3346 22.7412 13.1636C22.6578 12.8169 22.6578 12.3862 22.6578 12.0427C22.6578 5.33352 15.7771 1.80633 9.2315 1.72086C3.2728 1.63538 0 0 0 0C0 0 0.838642 8.77359 2.60092 13.6765C4.61652 19.268 8.30787 21.505 13.4279 21.505C13.7631 21.505 14.0998 21.505 14.4349 21.4195H14.5183C14.7701 21.4195 15.1052 21.334 15.357 21.247H15.4404C16.0273 21.0744 16.6158 20.9034 17.2027 20.6454C17.7062 20.3873 18.2097 20.1293 18.7132 19.7858C20.3921 21.7647 21.4825 23.313 21.4825 24H24C23.9166 22.7082 22.491 20.4728 20.477 18.1504L20.477 18.1503Z"/>
</symbol>
</defs>
</svg>
